<?xml version="1.0" encoding="UTF-8"?>
<svg width="31px" height="32px" viewBox="0 0 31 32" version="1.1" xmlns="http://www.w3.org/2000/svg" xmlns:xlink="http://www.w3.org/1999/xlink">
    <!-- Generator: Sketch 63.1 (92452) - https://sketch.com -->
    <title>f</title>
    <desc>Created with Sketch.</desc>
    <g id="Homepage-+-Landing-Page" stroke="none" stroke-width="1" fill="none" fill-rule="evenodd">
        <g id="Landing-Page---Mobil-1" transform="translate(-80.000000, -5462.000000)" fill="#FFFFFF" fill-rule="nonzero">
            <g id="Footer" transform="translate(0.000000, 5179.000000)">
                <g id="Group-16" transform="translate(79.500000, 282.956017)">
                    <path d="M18.4218311,31.3124921 C25.8317866,30.1487376 31.4999249,23.7362773 31.4999249,16.0000286 C31.4999249,7.43754902 24.5624414,0.500065565 15.9999619,0.500065565 C7.43748227,0.500065565 0.499998808,7.43754902 0.499998808,16.0000286 C0.499998808,23.7362773 6.16813715,30.1487376 13.5780926,31.3124921 L13.5780926,20.4806698 L9.64060201,20.4806698 L9.64060201,16.0000286 L13.5780926,16.0000286 L13.5780926,12.5850587 C13.5780926,8.70066857 15.8905871,6.5550438 19.4324488,6.5550438 C21.1286728,6.5550438 22.9024723,6.85753332 22.9024723,6.85753332 L22.9024723,10.6700242 L20.9474598,10.6700242 C19.0224766,10.6700242 18.4218311,11.8650287 18.4218311,13.0906728 L18.4218311,16.0000286 L22.7205879,16.0000286 L22.0330896,20.4806698 L18.4218311,20.4806698 L18.4218311,31.3124921 Z" id="f"></path>
                </g>
            </g>
        </g>
    </g>
</svg>