<?xml version="1.0" encoding="UTF-8"?>
<svg width="28px" height="29px" viewBox="0 0 28 29" version="1.1" xmlns="http://www.w3.org/2000/svg" xmlns:xlink="http://www.w3.org/1999/xlink">
    <!-- Generator: Sketch 63.1 (92452) - https://sketch.com -->
    <title>l</title>
    <desc>Created with Sketch.</desc>
    <g id="Homepage-+-Landing-Page" stroke="none" stroke-width="1" fill="none" fill-rule="evenodd">
        <g id="Landing-Page---Mobil-1" transform="translate(-267.000000, -5463.000000)" fill="#FFFFFF" fill-rule="nonzero">
            <g id="Footer" transform="translate(0.000000, 5179.000000)">
                <g id="Group-16" transform="translate(79.500000, 282.956017)">
                    <path d="M213.499938,29.9999952 C214.599911,29.9999952 215.499933,29.0937474 215.499933,27.9812623 L215.499933,4.01879497 C215.499933,2.90630983 214.599911,2.00006199 213.499938,2.00006199 L189.49377,2.00006199 C188.393736,2.00006199 187.5,2.90630983 187.5,4.01879497 L187.5,27.9812623 C187.5,29.0937474 188.393736,29.9999952 189.49377,29.9999952 L213.499938,29.9999952 Z M193.887497,10.812541 C192.556262,10.812541 191.481253,9.73130576 191.481253,8.40629672 C191.481253,7.08128767 192.556262,6.00005245 193.887497,6.00005245 C195.212506,6.00005245 196.293741,7.08128767 196.293741,8.40629672 C196.293741,9.73753133 195.218732,10.812541 193.887497,10.812541 Z M202.718714,26.0000048 L198.568699,26.0000048 L198.568699,12.6375488 L202.549952,12.6375488 L202.549952,14.4625567 L202.606226,14.4625567 C203.162438,13.4125104 204.518697,12.3063118 206.53743,12.3063118 C210.737432,12.3063118 211.518681,15.075043 211.518681,18.67501 L211.518681,26.0000048 L207.368727,26.0000048 L207.368727,19.5000203 C207.368727,17.9500362 207.337477,15.9562665 205.212482,15.9562665 C203.049951,15.9562665 202.718714,17.6437625 202.718714,19.3875327 L202.718714,26.0000048 Z M195.96873,26.0000048 L191.81249,26.0000048 L191.81249,12.6375488 L195.96873,12.6375488 L195.96873,26.0000048 Z" id="l"></path>
                </g>
            </g>
        </g>
    </g>
</svg>