<?xml version="1.0" encoding="UTF-8"?>
<svg width="33px" height="27px" viewBox="0 0 33 27" version="1.1" xmlns="http://www.w3.org/2000/svg" xmlns:xlink="http://www.w3.org/1999/xlink">
    <!-- Generator: Sketch 63.1 (92452) - https://sketch.com -->
    <title>t</title>
    <desc>Created with Sketch.</desc>
    <g id="Homepage-+-Landing-Page" stroke="none" stroke-width="1" fill="none" fill-rule="evenodd">
        <g id="Landing-Page---Mobil-1" transform="translate(-171.000000, -5464.000000)" fill="#FFFFFF" fill-rule="nonzero">
            <g id="Footer" transform="translate(0.000000, 5179.000000)">
                <g id="Group-16" transform="translate(79.500000, 282.956017)">
                    <path d="M101.821021,28.9949317 C113.881966,28.9949317 120.480889,19.0050874 120.480889,10.3351251 C120.480889,10.0508851 120.480889,9.76652296 120.460564,9.48228292 C121.739736,8.54826415 122.856554,7.39091828 123.749802,6.0914829 C122.572192,6.59905005 121.29302,6.96458873 119.973199,7.10667823 C121.333548,6.29454638 122.369068,5.01537462 122.856432,3.49249007 C121.597463,4.24377002 120.176202,4.79198648 118.694028,5.07622653 C117.495971,3.79705477 115.79047,3.00518655 113.902108,3.00518655 C110.267656,3.00518655 107.343774,5.94933236 107.343774,9.56352052 C107.343774,10.0711487 107.404687,10.5787159 107.506188,11.0660194 C102.064673,10.7817183 97.21184,8.18278651 93.9834541,4.2031207 C93.414852,5.17772775 93.0900847,6.29448534 93.0900847,7.51274416 C93.0900847,9.78684762 94.2473695,11.7969747 96.0138448,12.9746452 C94.9377976,12.934118 93.9224802,12.6295532 93.0494354,12.1422497 L93.0494354,12.2234263 C93.0494354,15.4112239 95.3032752,18.0507439 98.308334,18.6599344 C97.7601785,18.8020239 97.1713128,18.8832615 96.582508,18.8832615 C96.1560564,18.8832615 95.75,18.8426732 95.3438635,18.7817603 C96.176381,21.3807531 98.5926351,23.2690542 101.475868,23.3300282 C99.2220281,25.0965035 96.3996471,26.1320235 93.3337365,26.1320235 C92.78552,26.1320235 92.2779528,26.1116988 91.75,26.0508469 C94.6535575,27.9187624 98.1052705,28.9949317 101.821021,28.9949317 Z" id="t"></path>
                </g>
            </g>
        </g>
    </g>
</svg>